<svg width="342" height="342" viewBox="0 0 342 342" fill="none" xmlns="http://www.w3.org/2000/svg">
<rect width="342" height="342" rx="171" fill="black"/>
<path d="M204.275 222.692C188.398 217.534 172.648 212.424 156.898 207.313C155.1 206.729 153.323 206.071 151.5 205.575C150.025 205.173 149.632 204.581 150.154 203.032C153.746 192.367 157.217 181.662 160.755 170.979C168.345 148.058 175.954 125.142 183.55 102.222C184.671 98.8399 185.758 95.4465 186.872 92.0617C186.903 91.9667 186.931 91.8702 186.959 91.7732C187.268 90.6974 188.35 90.3711 189.049 91.2457C198.131 102.618 207.191 114.008 216.303 125.357C217.205 126.48 217.27 127.451 216.826 128.764C211.387 144.837 206.003 160.928 200.603 177.014C199.534 180.199 199.532 180.199 202.768 181.241C223.61 187.956 244.451 194.674 265.295 201.383C268.023 202.262 270.765 203.097 273.502 203.95C274.502 204.262 274.477 205.39 273.556 205.889C273.222 206.07 272.874 206.234 272.554 206.423C261.289 213.096 250.007 219.741 238.727 226.39C236.609 227.639 234.477 228.863 232.365 230.121C231.231 230.796 230.163 230.984 228.803 230.539C220.689 227.879 212.539 225.327 204.275 222.692Z" fill="url(#paint0_linear_929_45)"/>
<path d="M123.633 121.152C131.577 111.239 139.448 101.407 147.288 91.615C148.066 90.6441 149.343 90.3945 149.733 91.5755C155.3 108.431 160.826 125.3 166.408 142.151C171.989 158.999 177.626 175.828 183.23 192.668C184.337 195.995 185.326 199.362 186.518 202.659C187.104 204.277 186.702 204.905 185.05 205.433C169.719 210.334 154.418 215.326 139.105 220.279C128.697 223.646 118.279 226.986 107.874 230.362C106.765 230.722 105.88 230.625 104.819 230.024C90.7348 222.051 76.9644 213.562 62.9652 205.451C62.1726 204.991 62.1877 203.994 63.0803 203.788C63.1729 203.767 63.2646 203.744 63.3525 203.716C76.6043 199.44 89.8561 195.163 103.109 190.89C113.525 187.532 123.943 184.179 134.359 180.821C136.944 179.988 137.052 179.812 136.229 177.348C130.765 160.994 125.305 144.638 119.794 128.3C119.382 127.077 119.474 126.201 120.356 125.235C121.504 123.977 122.494 122.58 123.633 121.152Z" fill="url(#paint1_linear_929_45)"/>
<defs>
<linearGradient id="paint0_linear_929_45" x1="212.373" y1="90.2676" x2="212.373" y2="230.78" gradientUnits="userSpaceOnUse">
<stop stop-color="#FFD400"/>
<stop offset="1" stop-color="#FFD400"/>
</linearGradient>
<linearGradient id="paint1_linear_929_45" x1="124.386" y1="90" x2="124.386" y2="230.572" gradientUnits="userSpaceOnUse">
<stop stop-color="#FFD400"/>
<stop offset="1" stop-color="#FFD400"/>
</linearGradient>
</defs>
</svg>
